<svg width="360" height="516" viewBox="0 0 360 516" fill="none" xmlns="http://www.w3.org/2000/svg">
<g opacity="0.1" filter="url(#filter0_f_0_1)">
<path d="M-40.688 277.799L339.447 -10.0777L371.008 6.59669L183.328 463.585L-40.688 277.799Z" fill="url(#paint0_linear_0_1)" fill-opacity="0.6"/>
</g>
<g opacity="0.6" filter="url(#filter1_f_0_1)">
<path d="M-42.3196 268.409L339.614 -10.1034L370.973 6.40761L184.221 463.434L-42.3196 268.409Z" fill="url(#paint1_linear_0_1)" fill-opacity="0.6"/>
</g>
<g opacity="0.4">
<g style="mix-blend-mode:overlay">
<circle cx="2.55638" cy="2.55638" r="2.55638" transform="matrix(0.960534 -0.278164 -0.278164 -0.960534 223.276 407.994)" fill="#D4FB54"/>
</g>
<circle cx="1.27885" cy="1.27885" r="1.27885" transform="matrix(0.960534 -0.278164 -0.278164 -0.960534 251.193 357.33)" fill="#D4FB54"/>
<g style="mix-blend-mode:overlay">
<circle cx="1.27885" cy="1.27885" r="1.27885" transform="matrix(0.960534 -0.278164 -0.278164 -0.960534 318.925 444.168)" fill="#D4FB54"/>
</g>
<g style="mix-blend-mode:overlay">
<circle cx="1.27885" cy="1.27885" r="1.27885" transform="matrix(0.960534 -0.278164 -0.278164 -0.960534 312.697 275.64)" fill="#D4FB54"/>
</g>
<g style="mix-blend-mode:overlay">
<circle cx="2.55638" cy="2.55638" r="2.55638" transform="matrix(0.960534 -0.278164 -0.278164 -0.960534 310.122 340.257)" fill="#D4FB54"/>
</g>
<g style="mix-blend-mode:overlay">
<circle cx="1.27885" cy="1.27885" r="1.27885" transform="matrix(0.960534 -0.278164 -0.278164 -0.960534 234.127 298.395)" fill="#D4FB54"/>
</g>
<circle cx="1.27885" cy="1.27885" r="1.27885" transform="matrix(0.960534 -0.278164 -0.278164 -0.960534 295.9 291.149)" fill="#D4FB54"/>
<g style="mix-blend-mode:overlay">
<circle cx="1.27885" cy="1.27885" r="1.27885" transform="matrix(0.960534 -0.278164 -0.278164 -0.960534 304.697 395.063)" fill="#D4FB54"/>
</g>
<g style="mix-blend-mode:overlay">
<circle cx="2.59175" cy="2.59175" r="2.59175" transform="matrix(0.126698 -0.991941 -0.991941 -0.126698 232.863 251.131)" fill="#D4FB54"/>
</g>
<g style="mix-blend-mode:overlay">
<circle cx="1.29654" cy="1.29654" r="1.29654" transform="matrix(0.126698 -0.991941 -0.991941 -0.126698 196.979 204.737)" fill="#D4FB54"/>
</g>
<g style="mix-blend-mode:overlay">
<circle cx="1.29654" cy="1.29654" r="1.29654" transform="matrix(0.126698 -0.991941 -0.991941 -0.126698 305.079 176.741)" fill="#D4FB54"/>
</g>
<g style="mix-blend-mode:overlay">
<circle cx="1.29654" cy="1.29654" r="1.29654" transform="matrix(0.126698 -0.991941 -0.991941 -0.126698 235.938 63.4028)" fill="#D4FB54"/>
</g>
<circle cx="1.29654" cy="1.29654" r="1.29654" transform="matrix(0.126698 -0.991941 -0.991941 -0.126698 145.792 114.589)" fill="#D4FB54"/>
<g style="mix-blend-mode:overlay">
<circle cx="2.59175" cy="2.59175" r="2.59175" transform="matrix(0.126698 -0.991941 -0.991941 -0.126698 204.866 143.043)" fill="#D4FB54"/>
</g>
<g style="mix-blend-mode:overlay">
<circle cx="2.59175" cy="2.59175" r="2.59175" transform="matrix(0.126698 -0.991941 -0.991941 -0.126698 295.011 91.8518)" fill="#D4FB54"/>
</g>
<circle cx="2.59175" cy="2.59175" r="2.59175" transform="matrix(0.126698 -0.991941 -0.991941 -0.126698 166.856 51.9612)" fill="#D4FB54"/>
<circle cx="1.29654" cy="1.29654" r="1.29654" transform="matrix(0.126698 -0.991941 -0.991941 -0.126698 135.284 196.857)" fill="#D4FB54"/>
<circle cx="1.29654" cy="1.29654" r="1.29654" transform="matrix(0.126698 -0.991941 -0.991941 -0.126698 153.45 136.475)" fill="#D4FB54"/>
<g style="mix-blend-mode:overlay">
<circle cx="1.29654" cy="1.29654" r="1.29654" transform="matrix(0.126698 -0.991941 -0.991941 -0.126698 292.391 112.419)" fill="#D4FB54"/>
</g>
<g style="mix-blend-mode:overlay">
<circle cx="1.29654" cy="1.29654" r="1.29654" transform="matrix(0.126698 -0.991941 -0.991941 -0.126698 253.656 170.175)" fill="#D4FB54"/>
</g>
<g style="mix-blend-mode:overlay">
<circle cx="1.5684" cy="1.5684" r="1.5684" transform="matrix(0.790938 0.611897 0.611897 -0.790938 114.807 385.695)" fill="#D4FB54"/>
</g>
<g style="mix-blend-mode:overlay">
<circle cx="1.5684" cy="1.5684" r="1.5684" transform="matrix(0.790938 0.611897 0.611897 -0.790938 116.677 260.303)" fill="#D4FB54"/>
</g>
<g style="mix-blend-mode:overlay">
<circle cx="3.13518" cy="3.13518" r="3.13518" transform="matrix(0.790938 0.611897 0.611897 -0.790938 50.7952 304.467)" fill="#D4FB54"/>
</g>
<g style="mix-blend-mode:overlay">
<circle cx="3.13518" cy="3.13518" r="3.13518" transform="matrix(0.790938 0.611897 0.611897 -0.790938 122.912 314.761)" fill="#D4FB54"/>
</g>
<g style="mix-blend-mode:overlay">
<circle cx="1.5684" cy="1.5684" r="1.5684" transform="matrix(0.790938 0.611897 0.611897 -0.790938 37.3303 198.915)" fill="#D4FB54"/>
</g>
<g style="mix-blend-mode:overlay">
<circle cx="1.5684" cy="1.5684" r="1.5684" transform="matrix(0.790938 0.611897 0.611897 -0.790938 89.1682 254.873)" fill="#D4FB54"/>
</g>
</g>
<defs>
<filter id="filter0_f_0_1" x="-44.688" y="-14.0776" width="419.697" height="481.663" filterUnits="userSpaceOnUse" color-interpolation-filters="sRGB">
<feFlood flood-opacity="0" result="BackgroundImageFix"/>
<feBlend mode="normal" in="SourceGraphic" in2="BackgroundImageFix" result="shape"/>
<feGaussianBlur stdDeviation="2" result="effect1_foregroundBlur_0_1"/>
</filter>
<filter id="filter1_f_0_1" x="-72.3196" y="-40.1035" width="473.293" height="533.537" filterUnits="userSpaceOnUse" color-interpolation-filters="sRGB">
<feFlood flood-opacity="0" result="BackgroundImageFix"/>
<feBlend mode="normal" in="SourceGraphic" in2="BackgroundImageFix" result="shape"/>
<feGaussianBlur stdDeviation="15" result="effect1_foregroundBlur_0_1"/>
</filter>
<linearGradient id="paint0_linear_0_1" x1="352.471" y1="-4.51651" x2="175.551" y2="446.393" gradientUnits="userSpaceOnUse">
<stop stop-color="#D4FB54" stop-opacity="0.8"/>
<stop offset="1" stop-color="#131415" stop-opacity="0.1"/>
</linearGradient>
<linearGradient id="paint1_linear_0_1" x1="364.102" y1="21.7197" x2="188.142" y2="415.165" gradientUnits="userSpaceOnUse">
<stop stop-color="#D4FB54"/>
<stop offset="1" stop-color="#131415" stop-opacity="0.1"/>
</linearGradient>
</defs>
</svg>
